<?xml version="1.0" encoding="utf-8"?>
<!-- Generator: Adobe Illustrator 27.5.0, SVG Export Plug-In . SVG Version: 6.00 Build 0)  -->
<svg version="1.1" xmlns="http://www.w3.org/2000/svg" xmlns:xlink="http://www.w3.org/1999/xlink" x="0px" y="0px"
	 viewBox="0 0 500 500" style="enable-background:new 0 0 500 500;" xml:space="preserve">
<g id="BACKGROUND">
	<g>
		<path style="fill:#D9FCE7;" d="M500,0H214.66c-24.336,18.637-61.642,59.371-29.998,118.959
			c44.592,83.972,205.38-85.874,243.48-33.2c38.1,52.675-277.643,153.285-204.518,327.218
			c15.623,37.161,36.812,65.691,61.261,87.022H500V0z"/>
		<g>
			<path style="fill:#C5F9DA;" d="M428.142,85.759c-38.1-52.675-198.888,117.171-243.48,33.2
				C153.018,59.371,190.324,18.637,214.66,0H0v219.531c47.185-6.303,114.462-3.921,151.56,48.953
				C206.169,346.313,31.614,414.685,76.907,500h207.978c-24.449-21.331-45.638-49.861-61.261-87.022
				C150.498,239.044,466.242,138.434,428.142,85.759z"/>
			<path style="fill:#D9FCE7;" d="M151.56,268.483C114.462,215.61,47.185,213.228,0,219.531V500h76.907
				C31.614,414.685,206.169,346.313,151.56,268.483z"/>
		</g>
	</g>
</g>
<g id="OBJECT">
	<g>
		<path style="opacity:0.2;fill:#193F19;" d="M120.367,387.843c25.739-2.362,161.95-3.463,161.95-3.463
			c86.692-3.023,152.862,2.867,86.579,13.671c-44.565,7.264-102.041,7.946-147.416,6.931c1.02,0.543,1.652,1.133,1.798,1.767
			c1.543,6.692-59.372,2.439-58.13-2.996c0.078-0.341,0.369-0.653,0.846-0.938C125.223,400.49,94.768,390.192,120.367,387.843z"/>
		<g>
			<path style="fill:#F2E1E7;" d="M320.812,315.282c0.459-14.77,13.382-19.193,13.382-19.193l-1.418-6.597l13.883-0.056l26.43-0.107
				l13.883-0.056l-1.364,6.609c0,0,12.959,4.318,13.537,19.084c0.81,20.673,0.677,37.354,0.262,49.663
				c-0.472,13.972-11.93,25.06-25.91,25.117l0,0l-26.43,0.107h0c-13.98,0.056-25.528-10.938-26.113-24.906
				C320.437,352.64,320.169,335.96,320.812,315.282z"/>
			<g>
				<g>
					<g>
						<path style="fill:#275927;" d="M420.445,133.283c1.221,0.172,1.75,0.016,1.734-0.334c0.001,0.001,0.003,0.002,0.004,0.003
							c3.639,3.15,1.243,18.934-3.774,19.747c0,0-1.09-14.534-8.936-12.959C411.906,135.29,415.377,132.57,420.445,133.283z"/>
						<path style="fill:#5BB25B;" d="M371.105,156.359c1.493-11.425,11.576-9.769,22.563-22.967
							c9.389-11.28,28.421-2.496,28.512-0.442c0.016,0.35-0.513,0.505-1.734,0.334c-5.068-0.714-8.538,2.007-10.972,6.458
							c-5.354,9.794-5.684,27.966-6.942,36.377c-1.83,12.233-15.88,22.838-21.029,27.452c-5.149,4.613-13.746,13.315-13.746,13.315
							s4.877-13.424-0.1-24.664C362.679,180.981,369.612,167.784,371.105,156.359z"/>
					</g>
					<path style="fill:none;stroke:#1A3D1A;stroke-linecap:round;stroke-linejoin:round;stroke-miterlimit:10;" d="M412.717,128.433
						c0,0-10.378,0.226-15.026,12.459c-4.648,12.233-7.188,23.049-14.442,29.89c-7.254,6.841-10.656,14.36-9.877,20.241
						s4.458,10.631-5.616,25.861"/>
					<path style="fill:none;stroke:#1A3D1A;stroke-linecap:round;stroke-linejoin:round;stroke-miterlimit:10;" d="M408.028,142.874
						c0,0-4.733-3.143-12.413,3.711"/>
					<path style="fill:none;stroke:#1A3D1A;stroke-linecap:round;stroke-linejoin:round;stroke-miterlimit:10;" d="M406.799,146.54
						c0,0-9.729,0.624-12.506,3.784"/>
					<path style="fill:none;stroke:#1A3D1A;stroke-linecap:round;stroke-linejoin:round;stroke-miterlimit:10;" d="M387.01,139.939
						c0,0,2.029,5.216,0.039,9.687c-1.99,4.471-2.375,16.467-1.094,18.158"/>
					<path style="fill:none;stroke:#1A3D1A;stroke-linecap:round;stroke-linejoin:round;stroke-miterlimit:10;" d="M379.334,161.402
						c0,0-0.905,8.477,0.055,13.515"/>
					<path style="fill:none;stroke:#1A3D1A;stroke-linecap:round;stroke-linejoin:round;stroke-miterlimit:10;" d="M403.36,168.614
						c-0.742-0.024-9.792-1.632-14.476,1.676"/>
					<path style="fill:none;stroke:#1A3D1A;stroke-linecap:round;stroke-linejoin:round;stroke-miterlimit:10;" d="M395.724,173.459
						c0,0-12.361-0.744-20.562,8.098"/>
					<path style="fill:none;stroke:#1A3D1A;stroke-linecap:round;stroke-linejoin:round;stroke-miterlimit:10;" d="M380.526,144.45
						c0,0-0.602,4.324,0.034,8.403"/>
					<path style="fill:none;stroke:#1A3D1A;stroke-linecap:round;stroke-linejoin:round;stroke-miterlimit:10;" d="M399.28,156.271
						c0,0-3.868,1.895-5.852,5.074"/>
					<path style="fill:none;stroke:#000000;stroke-miterlimit:10;" d="M401.873,157.552c-0.121,0.353-5.28,2.488-6.794,5.548"/>
					<path style="fill:none;stroke:#1A3D1A;stroke-linecap:round;stroke-linejoin:round;stroke-miterlimit:10;" d="M375.027,148.4
						c0,0-0.362,4.213,0.034,8.439"/>
				</g>
				<path style="fill:#1A3A1A;" d="M356.753,137.737c5.337-6.836-7.915-8.721-6.776-15.049c1.139-6.329,4.841-6.412,4.841-6.412
					s2.68-9.402,5.157-9.141c2.477,0.261-3.309,13.823,2.541,13.73c5.849-0.093-1.534-7.247,1.131-10.746
					c2.665-3.498,8.483,10.719,7.513,14.906c-0.97,4.186-3.395,10.092-0.808,10.364c2.587,0.272,2.616-13.896,4.422-15.123
					c1.805-1.227,7.607,5.052,2.019,15.093c-5.588,10.04-1.304,12.381-1.304,12.381s2.85-14.344,8.738-10.653
					c5.888,3.69-10.29,15.801-7.789,21.321c0,0,7.468-12.494,10.99-7.815c3.523,4.679-8.684,12.369-6.946,20.819
					c1.738,8.45,4.463,18.461,3.58,29.095c-0.883,10.633-2.669,33.089-2.669,33.089l-7.638-0.804c0,0,6.247-28.363,3.201-39.313
					c-3.046-10.949-13.992-20.132-15.631-32.115c-1.639-11.982,2.193-9.217,2.193-9.217S352.494,143.194,356.753,137.737z"/>
				<g>
					<path style="fill:#70D670;" d="M255.503,209.118c2.13,3.867,14.407-9.709,26.063-2.465
						c11.657,7.245,42.56,40.592,78.729,38.684l-1.346-6.305c-0.235-1.103-0.452-2.208-0.656-3.317
						c-0.576-3.134-1.035-6.288-1.422-9.452c-0.236-1.925-0.731-4.421-1.73-7.168c-0.814,1.739-2.468,4.534-5.32,6.376
						c0,0,2.621-6.429,3.096-11.211c-1.766-3.129-4.28-6.34-7.843-9.255c-0.104,3.252-0.365,8.141-1.018,12.912
						c-0.505,3.691-1.244,7.313-2.328,10.053l-0.87,2.646l-1.765-0.874c0,0,1.322-6.341,2.124-13.602
						c0.513-4.642,0.813-9.657,0.417-13.636c-3.028-1.944-6.658-3.669-10.985-5.044c0.379,2.618,0.777,6.184,0.956,10.467
						c0.049,1.173,0.095,2.3,0.138,3.377c0.3,7.493,0.455,12.476,0.455,12.476l-1.24-1.581l-2.038-12.449l-2.215-13.527
						c-18.44-5.955-17.689-9.855-21.204-11.605c0.293,2.441,0.612,5.525,0.768,8.409c0.248,4.596,0.077,8.684-1.29,8.842
						c-1.445,0.166-1.957-4.435-2.271-9.556c-0.18-2.947-0.295-6.066-0.484-8.548c-0.864-0.102-1.89-0.167-3.132-0.195
						c-1.129-0.025-2.322-0.082-3.556-0.151c0.524,1.693,1.132,3.697,1.705,5.683c1.351,4.684,2.508,9.269,1.911,9.442
						c-0.821,0.238-4.965-9.479-8.524-15.431c-6.228-0.388-12.996-0.669-18.672,0.732c1.786,1.953,3.656,4.658,3.382,7.219
						c-0.392,3.664-3.231-3.518-6.522-6.207c-4.372,1.776-7.748,4.956-9.139,10.499C255.514,211.936,253.373,205.25,255.503,209.118
						z M324.009,218.265c-0.007-1.703,0.711-3.086,1.604-3.09c0.893-0.004,1.622,1.374,1.629,3.076
						c0.007,1.703-0.711,3.086-1.604,3.089C324.745,221.345,324.016,219.968,324.009,218.265z"/>
					<path style="fill:none;stroke:#1A3D1A;stroke-linecap:round;stroke-linejoin:round;stroke-miterlimit:10;" d="M315.367,200.595
						c0,0-2.406,14.984,0.091,22.373"/>
					<path style="fill:none;stroke:#1A3D1A;stroke-linecap:round;stroke-linejoin:round;stroke-miterlimit:10;" d="M311.688,205.719
						c0,0-1.374,8.814-0.827,13.216"/>
					<path style="fill:none;stroke:#1A3D1A;stroke-linecap:round;stroke-linejoin:round;stroke-miterlimit:10;" d="M290.322,193.65
						c0,0,4.998,16.118,6.778,20.55"/>
					<path style="fill:none;stroke:#1A3D1A;stroke-linecap:round;stroke-linejoin:round;stroke-miterlimit:10;" d="M289.465,199.467
						c0,0,0.735,7.396,2.157,10.562"/>
				</g>
				<g>
					<g>
						<path style="fill:#70D670;" d="M371.662,253.253c36.183,1.615,66.816-31.981,78.413-39.32
							c11.598-7.339,23.984,6.138,26.083,2.253c2.098-3.884,0.011,2.819-4.284-13.724c-1.436-5.532-4.838-8.684-9.224-10.424
							c-3.27,2.715-6.05,9.92-6.472,6.26c-0.295-2.56,1.554-5.279,3.323-7.247c-5.687-1.356-12.453-1.02-18.677-0.581
							c-3.51,5.98-7.576,15.73-8.398,15.499c-0.598-0.168,0.521-4.762,1.835-9.457c0.557-1.991,1.149-4,1.659-5.697
							c-1.233,0.079-2.426,0.145-3.555,0.18c-1.242,0.038-2.268,0.111-3.131,0.22c-0.169,2.483-0.259,5.603-0.415,8.551
							c-0.272,5.123-0.747,9.729-2.193,9.574c-1.369-0.146-1.572-4.233-1.362-8.831c0.132-2.885,0.427-5.972,0.7-8.415
							c-3.501,1.779-2.718,5.673-21.11,11.777l-2.105,13.545l-1.937,12.465l-1.227,1.59c0,0,0.115-4.984,0.354-12.479
							c0.034-1.077,0.071-2.205,0.111-3.378c0.144-4.285,0.514-7.853,0.872-10.474c-4.315,1.41-7.931,3.165-10.944,5.133
							c-0.364,3.982-0.023,8.995,0.527,13.632c0.861,7.254,2.234,13.584,2.234,13.584l-1.758,0.888l-0.892-2.639
							c-1.105-2.731-1.874-6.347-2.409-10.034c-0.691-4.766-0.992-9.653-1.123-12.903c-3.54,2.944-6.028,6.175-7.768,9.318
							c0.513,4.778,3.186,11.185,3.186,11.185c-2.867-1.819-4.544-4.6-5.371-6.333c-0.977,2.755-1.452,5.255-1.672,7.182
							c-0.362,3.167-0.796,6.325-1.346,9.463c-0.195,1.11-0.402,2.218-0.629,3.322L371.662,253.253z M404.495,225.902
							c-0.007-1.703,0.711-3.086,1.604-3.089s1.622,1.374,1.629,3.076c0.007,1.703-0.711,3.086-1.604,3.089
							C405.231,228.982,404.502,227.604,404.495,225.902z"/>
					</g>
					<path style="fill:none;stroke:#1A3D1A;stroke-linecap:round;stroke-linejoin:round;stroke-miterlimit:10;" d="M416.227,208.149
						c0,0,2.527,14.964,0.091,22.374"/>
					<path style="fill:none;stroke:#1A3D1A;stroke-linecap:round;stroke-linejoin:round;stroke-miterlimit:10;" d="M419.947,213.243
						c0,0,1.445,8.803,0.934,13.209"/>
					<path style="fill:none;stroke:#1A3D1A;stroke-linecap:round;stroke-linejoin:round;stroke-miterlimit:10;" d="M441.214,201.001
						c0,0-4.867,16.159-6.611,20.604"/>
					<path style="fill:none;stroke:#1A3D1A;stroke-linecap:round;stroke-linejoin:round;stroke-miterlimit:10;" d="M442.118,206.811
						c0,0-0.675,7.402-2.071,10.579"/>
				</g>
				<g>
					<path style="fill:#5BB25B;" d="M374.513,275.816c0,0,17.356-6.452,22.542-1.99c5.186,4.462,14.817,4.658,14.603,9.592
						c0,0-14.326,0.763-13.373,4.047c0.953,3.285,11.966-3.337,14.559-1.233c2.592,2.103-3.957,8.942,0.076,18.791
						c4.033,9.849,6.238,15.713,0.694,18.084c-5.544,2.371-4.868-4.678-13.564-5.818c-8.696-1.139-3.562-9.616-2.165-12.676
						c1.397-3.059-6.117-2.324-5.629,2.137c0.488,4.461-4.015,3.07-4.486-1.391c-0.471-4.461-4.243-7.969-2.376-11.03
						c1.867-3.061-1.192-4.223-2.114,0.009C382.356,298.569,381.1,278.373,374.513,275.816z"/>
					<path style="fill:none;stroke:#1A3D1A;stroke-linecap:round;stroke-linejoin:round;stroke-miterlimit:10;" d="M379.417,274.248
						c0,0,6.399,2.344,8.246,4.803c1.848,2.459,4.849,10.903,8.044,13.356c3.195,2.453,7.243,1.38,9.03,7.715
						c1.787,6.335,4.98,11.649,7.107,14.79c2.127,3.142,0.726,8.547,0.726,8.547"/>
					<path style="fill:none;stroke:#1A3D1A;stroke-linecap:round;stroke-linejoin:round;stroke-miterlimit:10;" d="M386.116,277.623
						c0,0,8.487-4.469,12.927-2.39"/>
					<path style="fill:none;stroke:#1A3D1A;stroke-linecap:round;stroke-linejoin:round;stroke-miterlimit:10;" d="M388.551,280.489
						c0,0,11.948-3.149,17.416-2.21"/>
					<path style="fill:none;stroke:#1A3D1A;stroke-linecap:round;stroke-linejoin:round;stroke-miterlimit:10;" d="M399.539,294.274
						c0.225,0.094,2.26-1.803,6.844-0.852c4.584,0.95,5.358,2.353,5.358,2.353"/>
					<path style="fill:none;stroke:#1A3D1A;stroke-linecap:round;stroke-linejoin:round;stroke-miterlimit:10;" d="M405.674,303.466
						c0,0-2.151,1.506-2.135,5.558c0.016,4.052-1.455,7.172-1.103,8.785"/>
				</g>
				<g>
					<path style="fill:#AAD845;" d="M407.749,248.876c0,0,0.47-2.324,6.799-5.638c6.329-3.314,9.787-5.912,9.787-5.912
						s-5.777,9.889-4.248,10.587c1.529,0.699,4.3-11.061,8.055-11.896c3.755-0.836,19.957-2.311,31.251,2.576
						c11.295,4.887,26.604,15,22.148,16.625c-4.456,1.625-10.348-2.975-13.389,0.054c-3.042,3.029,9.299,1.417,9.019,6.545
						c-0.28,5.128-20.009,5.846-26.345,7.197c-6.337,1.351-10.353-4.326-18.34-4.384c-7.987-0.057-4.56,4.961-16.012,4.723
						c-11.453-0.238-27.023,6.806-27.023,6.806l-4.446,0.018c0,0,7.879-19.697,12.148-22.886c4.269-3.188,11.819,5.231,12.993,4.994
						C411.319,258.05,407.749,248.876,407.749,248.876z"/>
					<path style="fill:none;stroke:#1A3D1A;stroke-linecap:round;stroke-linejoin:round;stroke-miterlimit:10;" d="M464.985,241.264
						c0,0-12.24,8.514-20.652,19.588"/>
					<path style="fill:none;stroke:#1A3D1A;stroke-linecap:round;stroke-linejoin:round;stroke-miterlimit:10;" d="M466.846,242.252
						c0,0-18.178,15.881-21.678,21.768"/>
					<path style="fill:none;stroke:#1A3D1A;stroke-linecap:round;stroke-linejoin:round;stroke-miterlimit:10;" d="M437.209,241.727
						c0.353,0.126-14.357,12.048-20.201,24.051"/>
					<path style="fill:none;stroke:#1A3D1A;stroke-linecap:round;stroke-linejoin:round;stroke-miterlimit:10;" d="M431.806,241.748
						c0,0-10.419,8.391-16.012,19.219"/>
					<path style="fill:none;stroke:#1A3D1A;stroke-linecap:round;stroke-linejoin:round;stroke-miterlimit:10;" d="M432.583,259.608
						c0,0-3.367,3.238-5.422,6.391"/>
					<path style="fill:none;stroke:#1A3D1A;stroke-linecap:round;stroke-linejoin:round;stroke-miterlimit:10;" d="M410.511,261.576
						c-0.351,0.236-4.671,6.364-5.834,9.362"/>
					
						<line style="fill:none;stroke:#1A3D1A;stroke-linecap:round;stroke-linejoin:round;stroke-miterlimit:10;" x1="404.653" y1="265.006" x2="400.806" y2="272.214"/>
				</g>
				<g>
					<path style="fill:#8BF28B;" d="M379.332,253.364c8.443-8.843,6.648-17.115-1.53-35.316
						c-8.178-18.201-4.964-25.613-16.15-38.252c-11.186-12.639,3.654-34.897-11.58-39.063c0,0-6.747-2.792-7.267,2.496
						c-0.519,5.287-2.035,17.273-5.815,21.869c-3.78,4.596-14.203,13.017-6.293,24.337c7.91,11.321-0.788,32.346,6.568,43.486
						c7.356,11.14-1.599,16.01,5.986,20.59L379.332,253.364z"/>
					<path style="fill:none;stroke:#1A3D1A;stroke-linecap:round;stroke-linejoin:round;stroke-miterlimit:10;" d="M345.372,140.108
						c0,0,8.332,7.739,0.101,24.955c-8.231,17.216,8.412,14.902,8.086,29.916c-0.326,15.015-5.108,25.71,0.141,34.881
						c5.249,9.172,13.981,8.818,6.628,23.58"/>
					<path style="fill:none;stroke:#1A3D1A;stroke-linecap:round;stroke-linejoin:round;stroke-miterlimit:10;" d="M347.309,181.669
						c0,0-0.855-4.631,1.778-7.108c2.632-2.477,6.704-5.66,7.988-10.777"/>
					<path style="fill:none;stroke:#1A3D1A;stroke-linecap:round;stroke-linejoin:round;stroke-miterlimit:10;" d="M359.289,176.293
						c0,0-6.377,2.111-7.12,6.224c-0.743,4.113,0.022,5.524,0.022,5.524"/>
					<path style="fill:none;stroke:#1A3D1A;stroke-linecap:round;stroke-linejoin:round;stroke-miterlimit:10;" d="M370.398,195.29
						c0,0-4.832,22.532-18.773,28.76"/>
					<path style="fill:none;stroke:#1A3D1A;stroke-linecap:round;stroke-linejoin:round;stroke-miterlimit:10;" d="M373.433,206.273
						c0,0-2.158,9.599-5.66,14.898"/>
					<path style="fill:none;stroke:#1A3D1A;stroke-linecap:round;stroke-linejoin:round;stroke-miterlimit:10;" d="M373.496,221.853
						c0,0-7.118,8.485-8.316,14.304"/>
				</g>
				<path style="fill:#275927;" d="M429.127,161.817c1.6,0.458-2.303,11.38,0.041,10.019c2.343-1.36,3.714-10.96,7.006-10.052
					c3.292,0.908-4.191,9.042-2.543,10.034c1.648,0.992,6.791-5.254,9.389-1.565c2.599,3.689-10.298,9.324-10.298,9.324
					s14.08-3.291,9.643,3.069c-4.437,6.36-18.306,3.832-18.977,12.291c-0.671,8.459,10.548-5.449,15.732-1.475
					c5.184,3.974-9.117,10.898-17.328,13.253c-8.212,2.355,18.308-3.507,11.765,5.035c-6.542,8.541-29.384-5.46-34.263,7.714
					c-4.879,13.174-9.988,8.954-11.759,16.074c-1.771,7.12-2.629,27.337-2.629,27.337l-4.933,0.02c0,0-5.927-31.869-0.607-43.14
					c5.32-11.271-1.991-18.552,2.817-20.201c4.809-1.649,6.797,6.564,5.272,16.436c-1.525,9.872,1.136,7.659,1.136,7.659
					s-1.419-2.825,1.502-9.549c2.922-6.724-3.718-19.481,2.91-23.266c6.628-3.785,4.876,12.853,3.925,17.343
					c0,0,3.956-4.926,6.526-6.815c2.57-1.89-6.858-12.84-0.069-17.122c6.788-4.281,4.252,10.497,7.554,12.378
					c3.302,1.881,4.09,1.515,1.443-3.578c-2.647-5.093-6.46-15.648-1.539-20.131c4.921-4.483,7.308,8.008,8.74,12.088
					c1.432,4.079-1.141,6.673-1.141,6.673s8.442-3.558,4.893-9.885c-3.549-6.328-7.576-14.523-5.469-16.416
					c2.106-1.892,3.797,9.611,5.919,11.481C425.906,178.72,421.44,159.619,429.127,161.817z"/>
				<path style="fill:#275927;" d="M308.318,167.74c6.862-8.521,13.897-17.872,13.747-12.281c-0.15,5.59-11.164,11.038-6.34,13.778
					c4.825,2.74,9.684-15.439,11.996-10.068c2.312,5.371-1.891,13.492-5.578,15.621c-3.687,2.129-4.72,9.937,0.026,6.368
					c4.746-3.569,7.61-12.741,10.042-10.989c2.432,1.752,5.849,13.464-5.989,17.994c-5.727,2.191,11.221,5.81,14.694-1.908
					c3.473-7.718,8.004,6.284,0.042,10.408c-7.961,4.124,6.987,8.654,6.073,25.452c-0.491,9.025,4.086,22.675,4.086,22.675
					l-6.924,0.028c0,0-1.72-18.051-6.777-26.398c-0.716-1.182-1.499-2.598-2.299-4.12c-3.785-7.2-9.179-13.377-15.583-18.392
					c-1.514-1.186-3.094-2.801-4.607-4.999C308.964,182.242,303.527,173.69,308.318,167.74z"/>
				<g>
					<g>
						<path style="fill:#3C873C;" d="M323.076,277.199c3.971-5.419,11.276,0.189,12.912-1.697c1.637-1.886-8.228-1.611-10.821-3.949
							c-2.593-2.338,1.377-7.992,4.652-11.294c3.275-3.302,3.034-4.945,6.067-9.89c3.034-4.945,11.763,4.415,10.335-0.042
							c-1.427-4.457-4.939-1.624-4.483-4.848c0.457-3.223,8.167-13.489,20.385-12.599c12.218,0.89,12.504,13.573,19.802,17.537
							c7.298,3.964,5.449,11.488,5.449,11.488c-1.418-2.108-8.486-7.247-12.698-3.237c-4.212,4.01-11.689,13.671-15.228,9.927
							c-3.539-3.744-9.186-6.07-9.186-6.07s1.418,2.108,3.6,7.972c2.182,5.863-5.385,15.29-11.264,13.669
							c-5.51-1.519-10.604,1.293-12.367,2.044c-0.104,0.042-0.203,0.077-0.309,0.121c-5.779,1.975,12.921,0.417,6.603,6.315
							c-6.318,5.898,1.034,23.25-1.788,22.557c-2.822-0.693-4.973-9.846-10.409-17.575
							C318.894,289.9,319.105,282.617,323.076,277.199z"/>
						<path style="fill:none;stroke:#000000;stroke-miterlimit:10;" d="M329.925,286.332c0.106-0.044,0.205-0.08,0.309-0.121
							C330.116,286.261,330.012,286.302,329.925,286.332z"/>
						<path style="fill:#275927;" d="M342.601,284.166c5.879,1.62,13.447-7.806,11.264-13.669c-2.182-5.864-3.6-7.972-3.6-7.972
							s5.647,2.326,9.186,6.07c3.538,3.744,11.016-5.917,15.228-9.927c4.212-4.01,11.28,1.129,12.698,3.237
							c0,0-0.977,5.348,0.026,6.401c1.003,1.053,4.402,5.062,3.49,6.361c-0.911,1.299-8.573,14.624-8.573,14.624l-40.312,0.163
							c0,0-1.39-7.413-11.773-3.243C331.997,285.46,337.091,282.648,342.601,284.166z"/>
					</g>
					<path style="fill:none;stroke:#1A3D1A;stroke-linecap:round;stroke-linejoin:round;stroke-miterlimit:10;" d="M376.17,244.157
						c0,0-11.919-7.997-20.315,6.836c-8.396,14.832-15.225,10.632-14.959,18.382c0.266,7.751-2.538,11.285-9.11,12.486
						c-6.572,1.201-8.909,4.264-4.655,10.589c4.254,6.325,2.734,15.216,2.734,15.216"/>
					<path style="fill:none;stroke:#1A3D1A;stroke-linecap:round;stroke-linejoin:round;stroke-miterlimit:10;" d="M345.867,262.349
						c0,0-10.389-3.691-16.97-1.114"/>
					<path style="fill:none;stroke:#1A3D1A;stroke-linecap:round;stroke-linejoin:round;stroke-miterlimit:10;" d="M341.107,267.022
						c0,0-9.984-3.948-15.843-0.695"/>
					<path style="fill:none;stroke:#1A3D1A;stroke-linecap:round;stroke-linejoin:round;stroke-miterlimit:10;" d="M368.503,242.005
						c0,0-7,11.431-6.512,16.01c0.488,4.578,2.918,6.734,0.023,11.359"/>
					<path style="fill:none;stroke:#1A3D1A;stroke-linecap:round;stroke-linejoin:round;stroke-miterlimit:10;" d="M357.039,249.082
						c0,0,2.384,4.363,0.033,8.013c-2.351,3.65-1.357,8.409-1.357,8.409"/>
					<path style="fill:none;stroke:#1A3D1A;stroke-linecap:round;stroke-linejoin:round;stroke-miterlimit:10;" d="M340.592,283.793
						c0,0,5.816-8.747,0.536-11.338"/>
					<path style="fill:none;stroke:#1A3D1A;stroke-linecap:round;stroke-linejoin:round;stroke-miterlimit:10;" d="M370.337,245.363
						c0,0-1.948,4.369-1.772,11.88"/>
				</g>
			</g>
		</g>
		<g>
			<path style="fill:#FDDC68;" d="M292.53,196.132c28.78-14.178,76.892,65.629,76.892,65.629s-1.66-0.154-5.045,0.232
				c-5.732,0.652-16.425,2.857-32.465,9.992c-1.607,0.715-3.264,1.475-4.979,2.293c0,0-0.548-8.104-14.825-22.876
				C286.497,224.903,272.845,205.829,292.53,196.132z"/>
			<path style="fill:#FDDC68;" d="M205.859,197.826c20.011,9.005,7.033,28.543-17.637,55.919
				c-13.753,15.261-14.018,23.379-14.018,23.379c-1.742-0.757-3.425-1.459-5.056-2.118c-16.279-6.571-27.043-8.401-32.794-8.853
				c-3.397-0.267-5.05-0.056-5.05-0.056S176.602,184.661,205.859,197.826z"/>
			<path style="fill:#305682;" d="M315.576,315.119c0,0,70.15-3.919,75.636,9.014c5.487,12.933,1.176,65.447-137.164,78.38
				l-0.392-7.054c-54.082-0.392-98.758-10.581-124.231-23.514c-25.473-12.933-23.122-27.433-19.595-41.149
				c3.527-13.717,60.352-10.581,64.663-10.581c4.311,0,15.284-3.919,15.284-3.919"/>
			<path style="fill:#FDB93C;" d="M312.974,302.482l2.602,12.637c0,0-30.176,33.311-61.528,33.311
				c-31.352,0-64.271-32.136-64.271-32.136l2.77-23.009c1.545-12.833,1.581-25.803,0.107-38.644l-5.577-51.764
				c-0.273-2.538,0.874-5.036,2.995-6.456c18.568-12.423,37.457-15.07,37.457-15.07l47.55,0.261c0,0,29.03,7.37,38.913,15.593
				c1.793,1.492,2.685,3.799,2.402,6.115l-5.4,44.155C308.579,265.792,309.248,284.385,312.974,302.482z"/>
			<path style="fill:#FFA05A;" d="M230.729,178.919c17.868,9.145,33.477,3.108,39.965-0.341c2.409,2.246,4.386,3.035,4.386,3.035
				s-3.396,11.234-21.424,11.234c-18.027,0-26.126-11.496-26.126-11.496C228.699,180.658,229.759,179.821,230.729,178.919z"/>
			<path style="fill:#E88852;" d="M230.729,178.919c4.878-4.537,7.251-10.892,7.251-10.892h26.126
				c1.758,5.149,4.358,8.473,6.587,10.551C264.206,182.027,248.597,188.064,230.729,178.919z"/>
			<path style="fill:#FFA05A;" d="M252.35,376.516c0,0-6.532,1.307-9.144-1.045c-2.613-2.351-12.018-4.964-19.856-0.523
				c-7.838,4.442-31.352-1.306-37.361,8.883c-6.009,10.189,0.522,10.451,0.522,10.451s-3.919,6.27-1.045,7.577
				c2.874,1.306-2.09,4.703,2.09,6.009c4.18,1.306,9.144-3.919,12.802-3.919c3.658,0,19.856,0.523,26.649-0.522
				c6.793-1.045,21.163-3.919,26.649-4.18L252.35,376.516z"/>
			<path style="fill:none;stroke:#000D2D;stroke-miterlimit:10;" d="M252.48,370.768c0,0,14.108-6.662,27.433-12.541
				c13.325-5.878,44.285-23.906,65.839-28.217"/>
			<path style="fill:none;stroke:#000D2D;stroke-miterlimit:10;" d="M151.763,334.714c8.622-4.311,30.176,1.96,52.122,10.973
				c21.946,9.014,48.399,18.289,48.399,18.289l0.196,6.695l-0.131,5.846"/>
			<path style="fill:none;stroke:#000000;stroke-miterlimit:10;" d="M279.913,329.031c0,0-21.75,20.967-50.555,7.642"/>
			<path style="fill:none;stroke:#000000;stroke-miterlimit:10;" d="M249.737,335.302c0,0-16.46,0-21.75-7.25"/>
			<path style="fill:none;stroke:#000D2D;stroke-linecap:round;stroke-linejoin:round;stroke-miterlimit:10;" d="M199.836,247.19"/>
			<path style="fill:none;stroke:#000000;stroke-miterlimit:10;" d="M273.643,191.867c0,0-11.561,12.345-29.392,5.878"/>
			<path style="fill:none;stroke:#000000;stroke-miterlimit:10;" d="M241.638,379.39c0,0-6.531-0.784-6.793,2.09"/>
			<path style="fill:none;stroke:#000000;stroke-miterlimit:10;" d="M186.511,394.282c0,0,1.829-2.743,7.707-2.09"/>
			<path style="fill:none;stroke:#000000;stroke-miterlimit:10;" d="M186.544,402.806c0,0,4.801-3.723,7.936-3.625"/>
			<path style="fill:#FFA05A;" d="M242.129,319.929c0.847-1.955,19.239-1.713,19.239-1.713c-3.772,1.517-7.837,3.606-11.519,5.829
				C245.996,322.762,241.648,321.038,242.129,319.929z"/>
			<g>
				<path style="fill:#1A3D1A;" d="M204.409,280.516c43.406,27.545,80.187-7.505,80.187-7.505
					C238.739,251.455,204.409,280.516,204.409,280.516z"/>
				<path style="fill:#F2E1E7;" d="M295.025,271.35c-0.031-0.128-0.057-0.256-0.1-0.38c-0.077-0.222-0.187-0.431-0.303-0.639
					c-0.064-0.114-0.116-0.232-0.191-0.34c-0.145-0.208-0.327-0.39-0.513-0.57c-0.086-0.083-0.155-0.178-0.249-0.254
					c-0.299-0.24-0.636-0.449-1.021-0.605c-2.945-1.195-5.851-2.24-8.715-3.145c-5.728-1.81-11.287-3.064-16.65-3.858
					c-4.022-0.596-7.934-0.933-11.723-1.053c-5.053-0.16-9.888,0.068-14.479,0.585c-2.295,0.259-4.529,0.59-6.698,0.981
					c-6.508,1.175-12.434,2.893-17.683,4.827c-1.75,0.645-3.425,1.314-5.021,1.995c-7.183,3.063-12.775,6.369-16.461,8.812
					c-0.343,0.227-0.628,0.497-0.87,0.79c-0.057,0.068-0.093,0.147-0.145,0.218c-0.174,0.244-0.333,0.496-0.444,0.765
					c-0.025,0.058-0.039,0.119-0.061,0.178c-0.11,0.308-0.193,0.626-0.226,0.949c-0.003,0.023-0.003,0.046-0.005,0.069
					c-0.031,0.364-0.019,0.732,0.045,1.092h0c0.011,0.06,0.016,0.12,0.03,0.18c0.039,0.173,0.093,0.341,0.15,0.509
					c0.058,0.157,0.123,0.311,0.201,0.461c0.042,0.084,0.073,0.173,0.123,0.254v0c0.347,0.568,0.84,1.066,1.487,1.424
					c45.298,25.093,84.405,1.291,98.071-9.075c1.169-0.886,1.652-2.209,1.563-3.486C295.122,271.803,295.08,271.576,295.025,271.35z
					 M204.409,280.516c0,0,34.331-29.06,80.187-7.505C284.596,273.01,247.815,308.06,204.409,280.516z"/>
				<path style="fill:#F2E1E7;" d="M203.003,300.751l12.451,54.598c0,0,39.431,16.157,71.679-8.239l3.357-56.65
					C249.422,313.203,209.862,303.694,203.003,300.751z"/>
				<path style="fill:#DBC1CC;" d="M295.167,272.206c-0.002-0.058-0.025-0.114-0.029-0.172c0.089,1.278-0.394,2.6-1.563,3.486
					c-13.666,10.367-52.773,34.168-98.071,9.075c-0.647-0.358-1.14-0.856-1.487-1.424c1.571,4.019,6.148,15.449,8.029,17.07
					c0.149,0.128,0.477,0.303,0.957,0.509c6.858,2.943,46.419,12.452,87.487-10.291c0.302-0.167,0.604-0.318,0.906-0.489
					C291.397,289.971,297.987,283.423,295.167,272.206z"/>
				<g>
					<g>
						<g>
							<path style="fill:#70D670;" d="M249.823,189.786c-1.806-4.248-5.17-8.24-5.17-8.24s-6.709,2.98-9.614,7.033l2.389,5.615
								l-4.843-2.698l-2.23,7.23l8.824,7.664l-0.443,2.551l-4.319-2.703c1.333,3.713,4.087,13.517-1.514,19.033
								c1.818,3.361,4.2,6.827,7.333,10.213c0,0,10.099-10.229,10.237-14.081c0.047-1.305-0.029-2.517-0.15-3.547l-5.82,2.064
								l6.245-5.561l-0.691-9.723c0,0-2.131,0.671-2.021,0.62c0.11-0.051,2.963-3.208,2.963-3.208S251.628,194.034,249.823,189.786z
								"/>
							<path style="fill:#5BB25B;" d="M234.417,206.239l-7.162-4.483c0,0-1.108,11.026,5.649,23.515
								C238.503,219.756,235.75,209.951,234.417,206.239z"/>
						</g>
						<g>
							<path style="fill:#AAD845;" d="M255.379,235.759l0.253,7.253l-2.376-4.492l-5.646,7.507l4.196,8.192l-5.036-4.376
								c0,0-6.812,7.479,3.442,18.819c0,0-3.028-7.126,5.495-18.935c5.758-7.979,13.117-9.375,17.289-9.442
								c0.178-0.124,0.349-0.251,0.529-0.374C290.872,228.035,269.691,225.786,255.379,235.759z"/>
							<path style="fill:#3C873C;" d="M255.706,249.726c-8.523,11.809-5.495,18.935-5.495,18.935s5.848-16.526,22.783-28.377
								C268.823,240.351,261.464,241.747,255.706,249.726z"/>
						</g>
						
							<path style="fill:none;stroke:#000000;stroke-width:0.5;stroke-linecap:round;stroke-linejoin:round;stroke-miterlimit:10;" d="
							M271.124,229.65c0,0-2.238,3.818-2.19,8.753"/>
						
							<path style="fill:none;stroke:#000000;stroke-width:0.5;stroke-linecap:round;stroke-linejoin:round;stroke-miterlimit:10;" d="
							M265.917,230.749c0,0-1.01,3.467-0.536,5.563"/>
						
							<path style="fill:none;stroke:#000000;stroke-width:0.5;stroke-linecap:round;stroke-linejoin:round;stroke-miterlimit:10;" d="
							M259.574,233.262c0,0-1.139,5.94,0.471,11.799"/>
						<g>
							<path d="M250.369,268.679c0.182,1.558,0.146,3.086,0.097,4.622c-0.044,1.536-0.091,3.071-0.223,4.624l-0.319,0.019
								c-0.308-1.536-0.426-3.096-0.436-4.654c-0.006-1.557,0.08-3.124,0.563-4.646L250.369,268.679z"/>
						</g>
						<g>
							<path d="M243.075,194.233c-1.417,6.844-2.287,13.802-2.782,20.766c-0.489,6.967-0.418,13.97,0.45,20.883
								c0.866,6.963,1.499,13.942,2.013,20.926c0.56,6.98,0.967,13.967,1.509,20.946l-0.296,0.031
								c-0.925-6.947-1.574-13.926-2.153-20.901c-0.63-6.971-1.131-13.953-1.976-20.889c-0.868-6.99-0.802-14.057-0.244-21.048
								c0.566-6.997,1.64-13.941,3.189-20.781L243.075,194.233z"/>
						</g>
						
							<path style="fill:none;stroke:#000000;stroke-width:0.5;stroke-linecap:round;stroke-linejoin:round;stroke-miterlimit:10;" d="
							M242.282,197.331c0,0,5.636-3.955,7.739-7.035"/>
						
							<path style="fill:none;stroke:#000000;stroke-width:0.5;stroke-linecap:round;stroke-linejoin:round;stroke-miterlimit:10;" d="
							M241.602,201.143c0,0,7.077-3.884,9.246-7.04"/>
						
							<path style="fill:none;stroke:#000000;stroke-width:0.5;stroke-linecap:round;stroke-linejoin:round;stroke-miterlimit:10;" d="
							M239.593,226.081c0,0,5.758-4.257,7.971-7.245"/>
						
							<path style="fill:none;stroke:#000000;stroke-width:0.5;stroke-linecap:round;stroke-linejoin:round;stroke-miterlimit:10;" d="
							M239.745,230.132c0,0,9.784-7.786,10.579-12.275"/>
						<g>
							<path d="M228.432,223.449c1.979,4.367,3.753,8.819,5.306,13.355c1.556,4.532,2.954,9.128,4.014,13.812
								c1.096,4.67,1.776,9.467,2.234,14.213c0.533,4.752,0.993,9.513,1.363,14.284l-0.404,0.046
								c-0.721-4.73-1.354-9.471-1.913-14.22c-0.296-2.373-0.55-4.754-0.883-7.101c-0.16-1.177-0.396-2.345-0.591-3.518
								c-0.22-1.169-0.481-2.331-0.719-3.497c-1.048-4.646-2.348-9.239-3.826-13.775c-1.5-4.527-3.091-9.038-4.952-13.431
								L228.432,223.449z"/>
						</g>
					</g>
					<path style="fill:#275927;" d="M214.938,206.853c-3.837-5.705-16.424-16.54-17.218-19.135
						C197.738,189.764,198.783,198.784,214.938,206.853z"/>
					<path style="fill:#3C873C;" d="M227.254,201.756l-3.495,4.315l1.544-6.789l-4.881-3.366c0,0-1.54,6.822-2.802,7.984
						c0,0,1.104-7.246,0.143-9.538c-0.961-2.292-18.956-8.515-20.031-7.074c0,0-0.016,0.151-0.014,0.429
						c0.795,2.595,13.381,13.43,17.218,19.135c4.112,6.114,11.44,17.282,13.308,16.68
						C228.247,223.533,240.913,214.405,227.254,201.756z"/>
					<g>
						
							<path style="fill:none;stroke:#000000;stroke-width:0.5;stroke-linecap:round;stroke-linejoin:round;stroke-miterlimit:10;" d="
							M229.719,204.327c0,0-0.162,5.67-3.349,10.975"/>
						
							<path style="fill:none;stroke:#000000;stroke-width:0.5;stroke-linecap:round;stroke-linejoin:round;stroke-miterlimit:10;" d="
							M232.101,207.823c0,0-0.067,6.673-3.591,9.481"/>
						
							<path style="fill:none;stroke:#000000;stroke-width:0.5;stroke-linecap:round;stroke-linejoin:round;stroke-miterlimit:10;" d="
							M213.083,191.492c0,0,0.601,4.617,0.223,7.392"/>
						
							<path style="fill:none;stroke:#000000;stroke-width:0.5;stroke-linecap:round;stroke-linejoin:round;stroke-miterlimit:10;" d="
							M211.59,190.86c0,0,0.316,5.454-0.06,7.241"/>
					</g>
				</g>
			</g>
			<path style="fill:none;stroke:#000000;stroke-miterlimit:10;" d="M338.214,289.486c0,0,6.725-3.587,10.438-1.095"/>
			<path style="fill:none;stroke:#000000;stroke-miterlimit:10;" d="M163.46,292.716c0,0-6.846-3.35-10.47-0.73"/>
			<path style="fill:#FFA05A;" d="M258.167,333.734c3.155-2.923,6.713-5.792,10.099-8.043c10.068-6.692,69.311-23.515,70.328-37.873
				c0.246-3.48-2.461-9.191-6.682-15.833c16.04-7.135,26.734-9.34,32.465-9.992c6.636,12.392,10.753,25.059,8.899,35.906
				c-6.126,35.828-80.773,35.181-90.766,47.993c-9.993,12.812-13.974,12.131-10.401,4.615c3.573-7.517-3.315,2.869-7.716,3.072
				c-4.401,0.204,2.767-10.379,2.767-10.379s-8.344,12.09-11.358,9.739c-3.015-2.351,5.803-13.656,5.803-13.656
				s-3.413,3.402-6.781,5.911c-0.549-1.252-1.677-2.83-3.198-4.572C253.343,338.487,255.618,336.095,258.167,333.734z"/>
			<path style="fill:#FFA05A;" d="M248.641,347.355c-0.32-0.439-0.297-1.113-0.008-1.952c1.043,0.727,2.071,1.361,3.007,1.818
				C250.281,347.888,249.167,348.076,248.641,347.355z"/>
			<path style="fill:#FFA05A;" d="M254.996,347.425c-0.542,0.801-1.815,0.549-3.356-0.204c0.975-0.478,2.074-1.201,3.183-2.026
				C255.244,346.153,255.335,346.925,254.996,347.425z"/>
			<path style="fill:#FFA05A;" d="M136.354,266.153c5.751,0.452,16.515,2.282,32.794,8.853c-3.987,6.785-6.494,12.587-6.126,16.056
				c1.517,14.314,61.311,29.06,71.607,35.397c3.462,2.131,7.117,4.874,10.373,7.686c2.554,2.206,4.852,4.45,6.624,6.478
				c-1.493,1.856-2.556,3.513-2.992,4.78c-3.417-2.383-6.873-5.592-6.873-5.592s9.206,10.99,6.276,13.445
				c-2.931,2.455-11.691-9.337-11.691-9.337s7.533,10.327,3.127,10.277c-4.406-0.05-11.652-10.189-7.819-2.801
				c3.833,7.387-0.122,8.206-10.555-4.249c-10.434-12.455-85.013-9.205-92.385-44.797
				C126.481,291.572,130.154,278.769,136.354,266.153z"/>
			<path style="fill:#FFA05A;" d="M254.823,345.194c-1.108,0.826-2.208,1.548-3.183,2.026c-0.936-0.457-1.964-1.091-3.007-1.818
				c0.436-1.267,1.499-2.924,2.992-4.78C253.146,342.364,254.273,343.943,254.823,345.194z"/>
			<path style="fill:#FFA05A;" d="M278.24,148.129c-3.264,10.83-10.487,20.156-20.432,25.543
				c-5.614,3.041-12.211,4.925-18.948,3.166c-17.967-4.689-27.109-34.174-23.356-53.527c3.753-19.353,23.497-44.541,56.398-21.594
				C286.262,111.732,282.465,134.106,278.24,148.129z"/>
			<path style="fill:#FFA05A;" d="M278.595,135.546c0,0,9.8-10.148,15.013-1.306c5.213,8.842-4.651,17.773-18.053,16.982
				C275.555,151.222,275.14,144.31,278.595,135.546z"/>
			<path style="fill:#48213E;" d="M278.595,135.546c0,0-2.079,5.412-2.753,11.84c-0.218,2.077-3.08,2.451-3.837,0.505
				c-2.254-5.792-4.492-12.814-4.637-18.137c-0.295-10.901-30.061-6.497-33.342-19.117c0,0-15.753,5.68-18.946,28.857
				c0,0-10.68-17.433-0.821-37.209c9.859-19.776,30.982-26.05,46.86-23.043c13.276,2.514,34.677,12.65,37.611,28.581
				c2.935,15.931-2.406,24.836-5.123,26.417C293.608,134.241,288.431,127.213,278.595,135.546z"/>
			<g>
				<path style="fill:#181028;" d="M246.317,140.551c0.569,2.049,2.69,3.25,4.74,2.682c2.049-0.568,3.25-2.69,2.682-4.739
					c-0.568-2.049-2.69-3.25-4.74-2.682C246.95,136.38,245.75,138.502,246.317,140.551z"/>
				<path style="fill:#181028;" d="M259.031,133.016c0.352-0.062,0.687-0.242,0.942-0.533c0.588-0.676,0.517-1.701-0.159-2.287
					c-0.403-0.35-9.942-8.499-19.946-2.959c-0.782,0.434-1.065,1.421-0.631,2.203c0.434,0.782,1.404,1.071,2.204,0.632
					c8.02-4.451,16.161,2.499,16.244,2.57C258.069,132.976,258.566,133.098,259.031,133.016z"/>
				<path style="fill:#181028;" d="M223.759,142.169c0.568,2.049,2.69,3.25,4.739,2.682c2.049-0.568,3.25-2.69,2.682-4.74
					c-0.568-2.049-2.69-3.25-4.74-2.681C224.392,137.998,223.19,140.12,223.759,142.169z"/>
				<path style="fill:#181028;" d="M234.959,132.847c0.321-0.057,0.629-0.211,0.874-0.46c0.621-0.637,0.619-1.649-0.009-2.278
					c-0.249-0.247-6.227-6.015-16.287-0.444c-0.782,0.433-1.064,1.421-0.631,2.203c0.434,0.786,1.42,1.068,2.204,0.632
					c7.842-4.343,12.25-0.26,12.435-0.084C233.933,132.791,234.463,132.934,234.959,132.847z"/>
				<path style="fill:#562A35;" d="M247.112,165.125c0.009-0.002,0.019-0.003,0.028-0.005c2.487-0.482,4.348-1.618,5.527-3.378
					c1.854-2.762,1.229-6.017,1.202-6.154c-0.177-0.877-1.094-1.355-1.909-1.271c-0.876,0.177-1.443,1.026-1.273,1.901
					c0.15,0.795,0.641,4.789-4.166,5.718c-0.877,0.171-1.454,1.022-1.283,1.9C245.408,164.707,246.242,165.278,247.112,165.125z"/>
				<path style="fill:#562A35;" d="M243.111,154.325c0.084-0.015,0.137-0.025,0.152-0.03c0.873-0.192,1.428-1.057,1.235-1.932
					c-0.195-0.869-1.112-1.4-1.925-1.236c-0.092,0.044-2.124,0.391-3.217-0.668c-1.071-1.041-0.956-3.198-0.673-4.825
					c1.656-9.451-0.808-12.772-1.094-13.121c-0.569-0.694-1.592-0.789-2.283-0.22c-0.691,0.569-0.79,1.591-0.222,2.282l0,0
					c-0.003,0.001,1.778,2.646,0.406,10.499c-0.613,3.507-0.064,6.109,1.634,7.735C239.259,154.854,242.378,154.454,243.111,154.325
					z"/>
				<path style="fill:#562A35;" d="M287.945,142.485c0.165,0.084,0.347,0.143,0.541,0.17c0.944,0.135,1.816-0.523,1.949-1.467
					c0.533-3.787-1.891-5.634-3.213-6.083c-0.906-0.301-1.881,0.19-2.182,1.093c-0.298,0.89,0.186,1.849,1.055,2.168
					c0.282,0.108,1.163,0.626,0.925,2.342C286.915,141.456,287.305,142.159,287.945,142.485z"/>
				<path style="fill:#562A35;" d="M280.371,145.837c0.276,0.141,0.593,0.209,0.924,0.182c5.677-0.465,8.485-6.88,8.602-7.153
					c0.373-0.874,0.041-1.862-0.906-2.261c-0.871-0.375-1.885,0.027-2.264,0.898c-0.021,0.048-2.118,4.783-5.716,5.079
					c-0.947,0.078-1.654,0.91-1.578,1.86C279.486,145.059,279.858,145.575,280.371,145.837z"/>
				<path style="fill:#FF7694;" d="M256.483,145.585c0,0-4.281-2.086-5.127,0.742c-1.018,3.405,9.053,3.871,9.053,3.871
					s1.704-9.493-1.976-9.313C254.755,141.064,256.483,145.585,256.483,145.585z"/>
				<path style="fill:#FF7694;" d="M230.693,153.076c0,0-3.67-3.035-5.157-0.486c-1.791,3.07,7.888,5.893,7.888,5.893
					s3.89-8.826,0.271-9.517C230.077,148.274,230.693,153.076,230.693,153.076z"/>
			</g>
		</g>
	</g>
	<g>
		<g>
			<path style="fill:#8BF28B;" d="M64.806,437.355c10.084-14.369,12.706-22.205,13.768-34.039
				c1.062-11.835,5.872-31.047,24.975-47.946c18.904-16.729,33.603-19.88,43.025-19.244c0.1,0.008,0.19,0.01,0.291,0.017
				c0.213,0.02,0.402,0.066,0.595,0.109c8.52,1.923-4.834,25.891-4.834,25.891s-17.422,5.686-13.007,9.166
				c4.414,3.481,9.503-1.049,9.503-1.049l-12.839,21.011c0,0-10.847-0.562-11.379,5.354c-0.531,5.917,8.01,0.668,8.01,0.668
				s-4.032,15.676-4.227,25.585c0,0,1.255,55.749-32.792,44.347C51.848,455.825,64.806,437.355,64.806,437.355z"/>
			<g>
				<g>
					<path style="fill:none;stroke:#000000;stroke-miterlimit:10;" d="M149.425,337.492c0,0-38.58,11.536-51.163,61.633
						c-12.582,50.098-20.766,92.85-40.13,103.284"/>
					<polyline style="fill:none;stroke:#000000;stroke-miterlimit:10;" points="146.662,353.859 125.892,351.801 125.582,340.514 
											"/>
					<path style="fill:none;stroke:#000000;stroke-miterlimit:10;" d="M118.698,344.129"/>
					<polyline style="fill:none;stroke:#000000;stroke-miterlimit:10;" points="133.241,379.885 108.062,374.109 100.377,358.326 
											"/>
					<polyline style="fill:none;stroke:#000000;stroke-miterlimit:10;" points="133.483,365.921 116.236,361.964 111.025,349.275 
											"/>
					<polyline style="fill:none;stroke:#000000;stroke-miterlimit:10;" points="114.905,396.626 99.927,393.19 86.557,376.612 					
						"/>
					<polyline style="fill:none;stroke:#000000;stroke-miterlimit:10;" points="118.885,419.412 93.171,416.572 78.574,403.316 
											"/>
					<polyline style="fill:none;stroke:#000000;stroke-miterlimit:10;" points="116.301,444.791 87.087,443.91 70.333,428.888 					
						"/>
				</g>
			</g>
		</g>
		<path style="fill:#275927;" d="M117.346,500c0,0,16.649-42.385,5.763-45.37c-10.885-2.985-17.929,28.058-17.929,28.058
			s-18.57-90.738-35.858-84.47c-17.289,6.268,12.807,62.98,12.807,62.98s-53.787-105.37-72.357-95.667
			c-18.57,9.703,46.744,94.472,46.744,94.472s-42.504-41.948-50.067-32.615c-7.562,9.334,34.699,55.3,34.699,55.3
			s-32.151-9.551-35.605-0.596C2.088,491.045,32.824,500,32.824,500H117.346z"/>
		<g>
			<g>
				<path style="fill:#AAD845;" d="M439.217,500.697c0,0,13.689-68.111,42.708-53.221c29.016,14.893-10.951,53.221-10.951,53.221
					H439.217z"/>
				<path d="M475.053,457.008c0.336-1.217,0.832-2.35,1.385-3.486c0.285-0.591-1.689-0.916-1.93-0.426
					c-0.58,1.201-1.122,2.399-1.474,3.692C472.893,457.279,474.883,457.621,475.053,457.008L475.053,457.008z"/>
				<path d="M475.766,467.358c0.336-1.22,0.835-2.35,1.382-3.483c0.287-0.593-1.686-0.919-1.924-0.425
					c-0.586,1.198-1.122,2.399-1.48,3.692C473.608,467.631,475.598,467.97,475.766,467.358L475.766,467.358z"/>
				<path d="M484.969,459.486c0.903-0.876,1.897-1.594,2.936-2.288c0.651-0.434-1.252-0.9-1.697-0.599
					c-1.12,0.748-2.198,1.521-3.166,2.459C482.684,459.409,484.527,459.914,484.969,459.486L484.969,459.486z"/>
				<path d="M482.57,469.228c0.9-0.873,1.898-1.594,2.936-2.288c0.653-0.431-1.255-0.894-1.7-0.596
					c-1.117,0.748-2.196,1.518-3.161,2.456C480.283,469.155,482.126,469.656,482.57,469.228L482.57,469.228z"/>
				<path d="M481.92,478.946c0.903-0.876,1.897-1.594,2.939-2.288c0.648-0.431-1.253-0.897-1.7-0.596
					c-1.12,0.745-2.198,1.518-3.164,2.459C479.635,478.873,481.478,479.374,481.92,478.946L481.92,478.946z"/>
				<path d="M490.402,474.422c0.897-0.873,1.895-1.594,2.936-2.288c0.651-0.431-1.255-0.895-1.7-0.596
					c-1.119,0.748-2.196,1.518-3.163,2.456C488.114,474.349,489.957,474.85,490.402,474.422L490.402,474.422z"/>
				<path d="M469.813,476.726c0.9-0.873,1.898-1.591,2.938-2.285c0.645-0.434-1.255-0.897-1.702-0.599
					c-1.117,0.748-2.196,1.521-3.164,2.459C467.525,476.653,469.369,477.157,469.813,476.726L469.813,476.726z"/>
				<path d="M469.805,493.619c0.906-0.862,1.908-1.575,2.957-2.261c0.651-0.428-1.252-0.895-1.702-0.596
					c-1.125,0.737-2.207,1.502-3.182,2.434C467.52,493.541,469.358,494.048,469.805,493.619L469.805,493.619z"/>
				<path d="M465.764,486.989c0.9-0.873,1.895-1.594,2.938-2.288c0.645-0.434-1.252-0.897-1.702-0.596
					c-1.12,0.743-2.196,1.518-3.161,2.456C463.476,486.913,465.322,487.417,465.764,486.989L465.764,486.989z"/>
				<path d="M459.719,496.694c0.9-0.873,1.897-1.594,2.938-2.288c0.648-0.431-1.252-0.895-1.7-0.596
					c-1.122,0.748-2.198,1.518-3.163,2.456C457.434,496.618,459.277,497.122,459.719,496.694L459.719,496.694z"/>
				<path d="M475.205,485.14c1.125-0.52,2.296-0.851,3.5-1.155c0.385-0.097,0.396-0.393,0.059-0.574
					c-0.417-0.22-0.973-0.268-1.431-0.152c-1.312,0.331-2.594,0.716-3.83,1.285c-0.426,0.195,0.101,0.521,0.306,0.591
					C474.235,485.287,474.783,485.333,475.205,485.14L475.205,485.14z"/>
				<path d="M478.792,491.787c1.128-0.518,2.298-0.851,3.497-1.155c0.39-0.1,0.401-0.39,0.062-0.575
					c-0.415-0.22-0.971-0.268-1.429-0.154c-1.312,0.336-2.594,0.718-3.83,1.288c-0.426,0.195,0.1,0.52,0.301,0.591
					C477.824,491.933,478.371,491.982,478.792,491.787L478.792,491.787z"/>
				<path d="M491.928,463.937c0.897-0.873,1.892-1.594,2.933-2.288c0.651-0.431-1.25-0.895-1.7-0.597
					c-1.119,0.748-2.193,1.518-3.161,2.456C489.64,463.863,491.483,464.365,491.928,463.937L491.928,463.937z"/>
				<path d="M483.443,448.984c0.905-0.876,1.897-1.594,2.938-2.288c0.651-0.434-1.252-0.897-1.697-0.596
					c-1.122,0.745-2.201,1.518-3.166,2.456C481.161,448.908,483.004,449.412,483.443,448.984L483.443,448.984z"/>
				<path d="M472.329,448.377c-0.184-1.323-0.55-2.589-0.965-3.857c-0.181-0.54-2.168-0.594-1.973,0.005
					c0.396,1.196,0.743,2.383,0.919,3.635C470.399,448.811,472.394,448.843,472.329,448.377L472.329,448.377z"/>
				<path d="M462.234,454.224c-0.185-1.326-0.548-2.591-0.965-3.858c-0.182-0.542-2.168-0.594-1.973,0.003
					c0.396,1.196,0.745,2.383,0.919,3.635C460.304,454.658,462.302,454.69,462.234,454.224L462.234,454.224z"/>
				<path d="M467.81,465.211c-0.184-1.328-0.55-2.591-0.971-3.86c-0.181-0.542-2.171-0.591-1.976,0.006
					c0.401,1.198,0.748,2.383,0.922,3.632C465.878,465.642,467.875,465.674,467.81,465.211L467.81,465.211z"/>
				<path d="M457.873,464.522c-0.187-1.328-0.55-2.592-0.973-3.86c-0.179-0.539-2.169-0.591-1.973,0.003
					c0.401,1.198,0.751,2.383,0.927,3.635C455.94,464.953,457.935,464.986,457.873,464.522L457.873,464.522z"/>
				<path d="M460.348,477.309c-0.187-1.326-0.553-2.589-0.973-3.858c-0.182-0.542-2.169-0.591-1.973,0.006
					c0.398,1.193,0.751,2.38,0.924,3.633C458.412,477.74,460.407,477.772,460.348,477.309L460.348,477.309z"/>
				<path d="M455.848,486.214c-0.184-1.328-0.55-2.591-0.97-3.858c-0.182-0.542-2.169-0.593-1.974,0.003
					c0.396,1.198,0.748,2.385,0.919,3.638C453.912,486.647,455.907,486.68,455.848,486.214L455.848,486.214z"/>
				<path d="M450.762,495.403c-0.184-1.323-0.551-2.591-0.965-3.857c-0.184-0.54-2.174-0.594-1.973,0.003
					c0.393,1.198,0.742,2.385,0.916,3.638C448.832,495.837,450.827,495.869,450.762,495.403L450.762,495.403z"/>
				<path d="M444.327,489.96c-0.184-1.326-0.548-2.591-0.968-3.858c-0.182-0.542-2.169-0.593-1.974,0.003
					c0.399,1.198,0.746,2.386,0.919,3.635C442.397,490.394,444.392,490.426,444.327,489.96L444.327,489.96z"/>
				<path d="M451.237,473.132c-0.185-1.323-0.55-2.586-0.971-3.855c-0.176-0.542-2.169-0.596-1.973,0.003
					c0.399,1.196,0.745,2.383,0.924,3.635C449.306,473.565,451.302,473.598,451.237,473.132L451.237,473.132z"/>
			</g>
			<g>
				<path style="fill:#275927;" d="M428.61,500.697c0,0,15.327-87.601-18.07-87.601c-33.399,0-24.638,87.601-24.638,87.601H428.61z"
					/>
				<path d="M421.464,423.66c0.995-1.439,2.467-2.394,3.765-3.53c0.361-0.32-1.461-0.851-1.922-0.444
					c-1.296,1.138-2.77,2.098-3.762,3.532C419.198,423.714,421.133,424.14,421.464,423.66L421.464,423.66z"/>
				<path d="M415.202,452.519c0.748-1.049,1.792-1.821,2.708-2.713c0.388-0.377-1.456-0.976-1.895-0.55
					c-0.916,0.895-1.957,1.664-2.711,2.711C412.944,452.47,414.863,452.985,415.202,452.519L415.202,452.519z"/>
				<path d="M404.771,439.578c-0.786-1.095-1.841-1.897-2.8-2.825c-0.323-0.32-0.908-0.412-1.345-0.388
					c-0.238,0.014-0.783,0.165-0.453,0.485c0.881,0.857,1.906,1.594,2.627,2.602c0.258,0.355,0.767,0.466,1.185,0.493
					C404.088,439.952,405.013,439.917,404.771,439.578L404.771,439.578z"/>
				<path d="M400.399,452.305c-0.786-1.093-1.843-1.895-2.8-2.825c-0.325-0.317-0.908-0.409-1.345-0.385
					c-0.238,0.014-0.786,0.165-0.45,0.485c0.876,0.857,1.903,1.594,2.624,2.6c0.257,0.355,0.77,0.469,1.185,0.494
					C399.719,452.681,400.64,452.643,400.399,452.305L400.399,452.305z"/>
				<path d="M397.685,478.965c-0.786-1.09-1.838-1.892-2.797-2.825c-0.325-0.315-0.911-0.41-1.345-0.385
					c-0.239,0.014-0.786,0.163-0.453,0.485c0.881,0.854,1.906,1.597,2.627,2.6c0.255,0.355,0.767,0.466,1.182,0.493
					C397.005,479.342,397.93,479.307,397.685,478.965L397.685,478.965z"/>
				<path d="M399.046,493.652c-0.786-1.09-1.843-1.892-2.803-2.825c-0.325-0.314-0.905-0.407-1.342-0.382
					c-0.238,0.014-0.786,0.163-0.453,0.485c0.879,0.854,1.903,1.594,2.624,2.597c0.26,0.358,0.77,0.472,1.187,0.496
					C398.363,494.032,399.287,493.994,399.046,493.652L399.046,493.652z"/>
				<path d="M387.206,466.872c-0.781-1.092-1.841-1.895-2.797-2.825c-0.325-0.315-0.911-0.407-1.345-0.382
					c-0.239,0.013-0.783,0.163-0.456,0.483c0.881,0.857,1.908,1.597,2.629,2.6c0.255,0.358,0.77,0.469,1.182,0.496
					C386.522,467.252,387.45,467.214,387.206,466.872L387.206,466.872z"/>
				<path d="M385.85,485.65c-0.781-1.093-1.838-1.895-2.797-2.825c-0.325-0.314-0.911-0.407-1.342-0.385
					c-0.239,0.016-0.786,0.163-0.458,0.485c0.884,0.854,1.911,1.594,2.63,2.6c0.255,0.358,0.764,0.469,1.182,0.496
					C385.17,486.029,386.094,485.991,385.85,485.65L385.85,485.65z"/>
				<path d="M412.367,428.068c-0.78-1.095-1.838-1.895-2.792-2.825c-0.328-0.317-0.916-0.409-1.345-0.385
					c-0.238,0.013-0.786,0.163-0.456,0.488c0.878,0.854,1.908,1.589,2.624,2.597c0.257,0.358,0.767,0.469,1.185,0.493
					C411.689,428.445,412.611,428.409,412.367,428.068L412.367,428.068z"/>
				<path d="M412.367,415.872c-0.78-1.092-1.838-1.895-2.792-2.828c-0.328-0.314-0.916-0.407-1.345-0.385
					c-0.238,0.016-0.786,0.168-0.456,0.488c0.878,0.854,1.908,1.594,2.624,2.597c0.257,0.358,0.767,0.472,1.185,0.499
					C411.689,416.249,412.611,416.211,412.367,415.872L412.367,415.872z"/>
				<path d="M399.041,421.736c-0.781-1.092-1.838-1.892-2.798-2.825c-0.325-0.315-0.905-0.407-1.342-0.385
					c-0.238,0.016-0.786,0.163-0.453,0.488c0.879,0.851,1.903,1.591,2.622,2.597c0.258,0.358,0.772,0.469,1.184,0.496
					C398.363,422.115,399.285,422.077,399.041,421.736L399.041,421.736z"/>
				<path d="M391.912,438.219c-0.783-1.092-1.843-1.895-2.798-2.824c-0.325-0.317-0.911-0.409-1.345-0.382
					c-0.238,0.011-0.789,0.163-0.455,0.483c0.876,0.857,1.903,1.594,2.624,2.6c0.255,0.355,0.77,0.469,1.182,0.496
					C391.226,438.596,392.15,438.558,391.912,438.219L391.912,438.219z"/>
				<path d="M390.556,453.663c-0.786-1.095-1.843-1.897-2.8-2.827c-0.328-0.317-0.908-0.409-1.345-0.385
					c-0.238,0.014-0.783,0.166-0.453,0.485c0.878,0.857,1.906,1.594,2.627,2.6c0.258,0.358,0.767,0.469,1.185,0.496
					C389.873,454.037,390.797,454.002,390.556,453.663L390.556,453.663z"/>
				<path d="M428.49,439.789c0.754-1.047,1.792-1.819,2.711-2.711c0.388-0.38-1.456-0.976-1.892-0.553
					c-0.916,0.892-1.963,1.664-2.716,2.711C426.235,439.74,428.154,440.255,428.49,439.789L428.49,439.789z"/>
				<path d="M418.268,436.612c0.938-1.822,2.253-3.237,3.996-4.315c0.431-0.26-1.269-1.144-1.789-0.824
					c-1.808,1.117-3.166,2.618-4.137,4.5C416.1,436.428,417.975,437.176,418.268,436.612L418.268,436.612z"/>
				<path d="M425.381,451.098c0.897-0.873,1.895-1.591,2.936-2.288c0.651-0.434-1.253-0.895-1.703-0.596
					c-1.117,0.748-2.193,1.521-3.16,2.459C423.091,451.022,424.939,451.527,425.381,451.098L425.381,451.098z"/>
				<path d="M420.298,468.041c0.9-0.873,1.897-1.594,2.936-2.288c0.648-0.434-1.255-0.895-1.7-0.596
					c-1.117,0.745-2.196,1.518-3.161,2.456C418.011,467.965,419.854,468.469,420.298,468.041L420.298,468.041z"/>
				<path d="M403.394,462.752c0.9-0.873,1.892-1.594,2.939-2.288c0.645-0.431-1.255-0.897-1.703-0.599
					c-1.122,0.748-2.196,1.521-3.163,2.461C401.106,462.679,402.952,463.18,403.394,462.752L403.394,462.752z"/>
				<path d="M410.99,481.489c0.9-0.873,1.898-1.594,2.936-2.288c0.648-0.431-1.252-0.897-1.7-0.599
					c-1.117,0.748-2.193,1.521-3.161,2.459C408.702,481.416,410.545,481.917,410.99,481.489L410.99,481.489z"/>
				<path d="M425.381,478.946c0.897-0.876,1.895-1.594,2.936-2.288c0.651-0.431-1.253-0.897-1.703-0.596
					c-1.117,0.745-2.193,1.518-3.16,2.459C423.091,478.873,424.939,479.374,425.381,478.946L425.381,478.946z"/>
				<path d="M413.69,493.636c0.9-0.873,1.895-1.594,2.939-2.288c0.648-0.434-1.253-0.897-1.702-0.599
					c-1.12,0.745-2.196,1.521-3.161,2.459C411.402,493.56,413.251,494.064,413.69,493.636L413.69,493.636z"/>
				<path d="M426.815,491.261c0.9-0.873,1.895-1.594,2.933-2.288c0.653-0.431-1.247-0.894-1.697-0.596
					c-1.12,0.745-2.196,1.518-3.161,2.456C424.527,491.188,426.371,491.689,426.815,491.261L426.815,491.261z"/>
				<path d="M431.22,462.752c0.898-0.873,1.895-1.594,2.933-2.288c0.653-0.431-1.255-0.897-1.699-0.599
					c-1.117,0.748-2.193,1.521-3.161,2.461C428.93,462.679,430.773,463.18,431.22,462.752L431.22,462.752z"/>
			</g>
			<g>
				<path style="fill:#8BF28B;" d="M398.219,500.697c0,0-13.692-68.111-42.708-53.221c-29.016,14.893,10.952,53.221,10.952,53.221
					H398.219z"/>
				<path d="M364.381,456.894c-0.347-1.253-0.862-2.418-1.431-3.586c-0.263-0.539-2.223-0.507-1.973,0.003
					c0.569,1.171,1.084,2.337,1.431,3.589C362.554,457.436,364.552,457.52,364.381,456.894L364.381,456.894z"/>
				<path d="M363.665,467.246c-0.347-1.255-0.862-2.421-1.428-3.586c-0.263-0.54-2.223-0.51-1.974,0.003
					c0.566,1.166,1.082,2.334,1.429,3.586C361.838,467.786,363.833,467.867,363.665,467.246L363.665,467.246z"/>
				<path d="M354.324,459.16c-0.935-0.905-1.968-1.651-3.05-2.372c-0.393-0.263-0.894-0.353-1.366-0.296
					c-0.192,0.024-0.821,0.247-0.423,0.515c1.079,0.721,2.114,1.466,3.05,2.372C352.923,459.757,354.874,459.697,354.324,459.16
					L354.324,459.16z"/>
				<path d="M356.726,468.908c-0.935-0.908-1.971-1.654-3.052-2.375c-0.393-0.263-0.895-0.352-1.366-0.292
					c-0.19,0.022-0.819,0.244-0.423,0.51c1.081,0.721,2.117,1.469,3.052,2.375C355.322,469.499,357.276,469.439,356.726,468.908
					L356.726,468.908z"/>
				<path d="M357.376,478.624c-0.938-0.905-1.968-1.654-3.052-2.375c-0.396-0.266-0.895-0.352-1.366-0.293
					c-0.19,0.022-0.822,0.244-0.423,0.512c1.079,0.721,2.115,1.467,3.05,2.372C355.972,479.217,357.924,479.158,357.376,478.624
					L357.376,478.624z"/>
				<path d="M348.894,474.102c-0.938-0.911-1.971-1.654-3.052-2.375c-0.396-0.266-0.895-0.352-1.366-0.293
					c-0.192,0.022-0.821,0.244-0.423,0.51c1.079,0.721,2.114,1.469,3.05,2.374C347.49,474.693,349.442,474.633,348.894,474.102
					L348.894,474.102z"/>
				<path d="M369.48,476.406c-0.935-0.908-1.965-1.654-3.05-2.375c-0.396-0.263-0.895-0.352-1.366-0.293
					c-0.19,0.022-0.819,0.244-0.423,0.512c1.079,0.719,2.114,1.467,3.049,2.372C368.078,477,370.03,476.94,369.48,476.406
					L369.48,476.406z"/>
				<path d="M369.49,493.3c-0.984-0.941-2.082-1.702-3.215-2.451c-0.442-0.284-2.394-0.173-1.496,0.42
					c1.035,0.68,2.019,1.39,2.919,2.247C368.089,493.891,370.046,493.828,369.49,493.3L369.49,493.3z"/>
				<path d="M373.533,486.664c-0.932-0.905-1.968-1.651-3.047-2.369c-0.401-0.266-0.894-0.353-1.371-0.298
					c-0.19,0.027-0.821,0.249-0.423,0.515c1.079,0.721,2.12,1.466,3.05,2.375C372.128,487.26,374.085,487.2,373.533,486.664
					L373.533,486.664z"/>
				<path d="M379.577,496.368c-0.938-0.905-1.968-1.648-3.049-2.369c-0.399-0.266-0.897-0.353-1.369-0.298
					c-0.19,0.027-0.821,0.25-0.423,0.515c1.079,0.721,2.114,1.469,3.049,2.375C378.173,496.965,380.125,496.905,379.577,496.368
					L379.577,496.368z"/>
				<path d="M363.828,484.631c-1.323-0.605-2.692-1.014-4.099-1.372c-0.851-0.217-1.962,0.38-0.621,0.721
					c1.103,0.282,2.19,0.591,3.229,1.071c0.434,0.198,0.965,0.285,1.428,0.155C364.123,485.105,364.197,484.804,363.828,484.631
					L363.828,484.631z"/>
				<path d="M360.241,491.28c-1.325-0.61-2.692-1.016-4.101-1.374c-0.851-0.214-1.963,0.382-0.621,0.721
					c1.109,0.282,2.19,0.591,3.229,1.068c0.434,0.201,0.965,0.287,1.431,0.157C360.537,491.752,360.607,491.448,360.241,491.28
					L360.241,491.28z"/>
				<path d="M347.368,463.617c-0.938-0.908-1.968-1.654-3.052-2.375c-0.393-0.263-0.895-0.353-1.366-0.293
					c-0.19,0.022-0.819,0.244-0.423,0.51c1.079,0.721,2.114,1.469,3.052,2.375C345.964,464.208,347.916,464.148,347.368,463.617
					L347.368,463.617z"/>
				<path d="M355.847,448.659c-0.932-0.905-1.965-1.651-3.047-2.372c-0.396-0.263-0.894-0.352-1.366-0.296
					c-0.193,0.025-0.824,0.247-0.423,0.515c1.079,0.721,2.114,1.464,3.047,2.372C354.449,449.255,356.4,449.195,355.847,448.659
					L355.847,448.659z"/>
				<path d="M367.127,448.377c0.176-1.288,0.534-2.51,0.946-3.746c0.152-0.461-1.816-0.835-2.022-0.217
					c-0.41,1.23-0.767,2.456-0.944,3.746C365.029,448.724,367.048,448.965,367.127,448.377L367.127,448.377z"/>
				<path d="M377.219,454.224c0.179-1.288,0.537-2.513,0.946-3.746c0.155-0.464-1.814-0.835-2.02-0.22
					c-0.412,1.23-0.77,2.456-0.946,3.746C375.124,454.568,377.141,454.812,377.219,454.224L377.219,454.224z"/>
				<path d="M371.651,465.211c0.176-1.29,0.536-2.516,0.943-3.749c0.152-0.461-1.816-0.835-2.022-0.217
					c-0.407,1.233-0.764,2.456-0.944,3.743C369.553,465.555,371.57,465.796,371.651,465.211L371.651,465.211z"/>
				<path d="M381.583,464.522c0.182-1.29,0.537-2.516,0.946-3.746c0.155-0.464-1.813-0.835-2.019-0.222
					c-0.412,1.233-0.764,2.459-0.946,3.746C379.485,464.864,381.505,465.108,381.583,464.522L381.583,464.522z"/>
				<path d="M379.111,477.309c0.179-1.288,0.537-2.513,0.943-3.746c0.152-0.464-1.813-0.835-2.019-0.22
					c-0.409,1.23-0.764,2.456-0.946,3.746C377.013,477.653,379.03,477.897,379.111,477.309L379.111,477.309z"/>
				<path d="M383.611,486.214c0.174-1.288,0.537-2.516,0.943-3.746c0.157-0.464-1.816-0.835-2.022-0.217
					c-0.407,1.231-0.767,2.453-0.943,3.747C381.513,486.561,383.53,486.799,383.611,486.214L383.611,486.214z"/>
			</g>
		</g>
	</g>
</g>
<g id="DESIGNED_BY_FREEPIK">
	<g>
		<g>
			<g id="XMLID_197_">
				<g id="XMLID_216_">
					<path id="XMLID_224_" d="M260.603,476.322c-0.432,0.443-0.803,0.932-1.107,1.453l-0.465-0.24
						c-0.068-0.297-0.35-0.502-0.66-0.467c-0.33,0.039-0.566,0.34-0.529,0.67c0.039,0.332,0.34,0.568,0.67,0.529
						c0.066-0.008,0.127-0.025,0.184-0.053l0.451,0.234c-0.25,0.555-0.432,1.139-0.539,1.744l0.748,0.131
						c0.229-1.305,0.85-2.506,1.791-3.473L260.603,476.322z"/>
					<path id="XMLID_223_" d="M266.091,474.022c-0.172,0-0.342,0.006-0.51,0.016l-0.074-0.625c0.188-0.15,0.297-0.389,0.266-0.645
						c-0.045-0.393-0.402-0.674-0.795-0.629c-0.393,0.047-0.674,0.402-0.627,0.797c0.029,0.254,0.189,0.461,0.404,0.563l0.072,0.625
						c-0.713,0.115-1.402,0.332-2.059,0.645l0.326,0.686c0.935-0.447,1.941-0.674,2.996-0.674c0.496,0,0.992,0.053,1.475,0.158
						l0.16-0.742C267.191,474.08,266.642,474.022,266.091,474.022z"/>
					<path id="XMLID_222_" d="M272.693,476.568c0.332-0.041,0.566-0.342,0.525-0.672c-0.039-0.332-0.34-0.566-0.672-0.525
						c-0.309,0.037-0.535,0.303-0.529,0.608l-0.416,0.363c-0.418-0.43-0.891-0.813-1.408-1.139l-0.404,0.641
						c1.135,0.715,2.021,1.727,2.564,2.926l0.689-0.313c-0.25-0.555-0.566-1.072-0.941-1.545l0.402-0.352
						C272.564,476.572,272.629,476.576,272.693,476.568z"/>
					<path id="XMLID_221_" d="M265.545,484.229c-0.387,0.023-0.775,0.035-1.158,0.035c-0.879,0-1.732-0.061-2.478-0.18
						c-0.391-0.06-0.846-0.154-1.27-0.291c1.047,1.861,3.068,3.125,5.389,3.125c2.855,0,5.262-1.916,5.949-4.504
						c-0.682,0.449-1.506,0.826-2.459,1.123C268.338,483.904,266.963,484.145,265.545,484.229z"/>
					<path id="XMLID_217_" d="M266.091,475.537c-3.352,0-6.08,2.666-6.08,5.943c0,0.426,0.047,0.85,0.137,1.262
						c0.674,0.482,2.707,0.891,5.348,0.73c2.881-0.174,5.297-0.957,6.672-2.158c-0.004-0.195-0.02-0.391-0.045-0.582
						C271.744,477.772,269.15,475.537,266.091,475.537z M263.931,482.053c-1.02,0-1.85-0.83-1.85-1.85
						c0-1.021,0.83-1.852,1.85-1.852c1.02,0,1.85,0.83,1.85,1.852C265.781,481.223,264.951,482.053,263.931,482.053z
						 M268.67,481.145c-0.75,0-1.361-0.611-1.361-1.361s0.611-1.359,1.361-1.359s1.359,0.609,1.359,1.359
						S269.42,481.145,268.67,481.145z"/>
				</g>
				<path id="XMLID_214_" d="M282.095,477.404c-0.295-0.115-0.807-0.309-1.383-0.238c-0.551,0.07-0.844,0.342-0.844,1.008v0.865
					h2.228v1.717h-2.228v5.455h-1.932v-5.455h-1.34v-1.717h1.34v-0.889c0-1.68,0.895-2.781,2.568-2.781
					c0.643,0,1.156,0.121,1.59,0.307V477.404z"/>
				<path id="XMLID_212_" d="M286.797,480.736c-0.176-0.029-0.358-0.047-0.525-0.047c-0.895,0-1.51,0.549-1.51,1.613v3.908h-1.932
					v-7.172h1.873v0.785c0.451-0.674,1.139-0.977,2.02-0.977c0.414,0,0.848,0.127,1.096,0.336L286.797,480.736z"/>
				<path id="XMLID_209_" d="M294.465,482.615c0,0.221-0.016,0.488-0.037,0.65h-5.084c0.207,1.037,0.932,1.488,1.842,1.488
					c0.623,0,1.295-0.252,1.815-0.689l1.133,1.244c-0.814,0.748-1.852,1.088-3.057,1.088c-2.199,0-3.725-1.496-3.725-3.752
					c0-2.258,1.48-3.797,3.627-3.797C293.043,478.848,294.457,480.379,294.465,482.615z M289.351,481.949h3.174
					c-0.178-0.918-0.732-1.438-1.561-1.438C290.054,480.512,289.521,481.061,289.351,481.949z"/>
				<path id="XMLID_206_" d="M302.119,482.615c0,0.221-0.016,0.488-0.037,0.65h-5.086c0.207,1.037,0.934,1.488,1.844,1.488
					c0.621,0,1.295-0.252,1.813-0.689l1.133,1.244c-0.814,0.748-1.85,1.088-3.057,1.088c-2.199,0-3.723-1.496-3.723-3.752
					c0-2.258,1.48-3.797,3.627-3.797C300.697,478.848,302.111,480.379,302.119,482.615z M297.004,481.949h3.176
					c-0.178-0.918-0.734-1.438-1.563-1.438C297.707,480.512,297.173,481.061,297.004,481.949z"/>
				<path id="XMLID_203_" d="M310.465,482.621c0,2.154-1.496,3.775-3.473,3.775c-0.961,0-1.643-0.377-2.109-0.932v3.707h-1.924
					v-10.133h1.887v0.793c0.467-0.586,1.154-0.984,2.139-0.984C308.968,478.848,310.465,480.469,310.465,482.621z M304.787,482.621
					c0,1.133,0.748,1.977,1.844,1.977c1.139,0,1.85-0.881,1.85-1.977c0-1.094-0.711-1.975-1.85-1.975
					C305.535,480.647,304.787,481.49,304.787,482.621z"/>
				<path id="XMLID_200_" d="M313.568,476.693c0,0.695-0.541,1.229-1.236,1.229c-0.697,0-1.229-0.533-1.229-1.229
					c0-0.695,0.531-1.244,1.229-1.244C313.027,475.449,313.568,475.998,313.568,476.693z M313.308,486.211h-1.932v-7.172h1.932
					V486.211z"/>
				<path id="XMLID_198_" d="M316.531,481.594l2.703-2.555h2.367l-3.479,3.375l3.502,3.797h-2.377l-2.717-2.9v2.9h-1.932v-10.658
					h1.932V481.594z"/>
			</g>
			<g>
				<path d="M184.912,486.147v-1.055c-0.527,0.719-1.391,1.23-2.387,1.23c-1.846,0-3.149-1.406-3.149-3.705
					c0-2.256,1.289-3.721,3.149-3.721c0.952,0,1.816,0.469,2.387,1.244v-3.764h1.099v9.769H184.912z M184.912,484.229v-3.209
					c-0.395-0.615-1.245-1.143-2.124-1.143c-1.42,0-2.27,1.172-2.27,2.74c0,1.566,0.85,2.725,2.27,2.725
					C183.667,485.342,184.517,484.844,184.912,484.229z"/>
				<path d="M187.431,482.602c0-2.051,1.465-3.705,3.486-3.705c2.139,0,3.398,1.67,3.398,3.793v0.279h-5.727
					c0.088,1.332,1.025,2.445,2.549,2.445c0.806,0,1.626-0.322,2.182-0.893l0.527,0.717c-0.703,0.703-1.655,1.084-2.812,1.084
					C188.94,486.322,187.431,484.815,187.431,482.602z M190.903,479.805c-1.509,0-2.256,1.273-2.314,2.357h4.644
					C193.217,481.108,192.514,479.805,190.903,479.805z"/>
				<path d="M195.107,485.209l0.571-0.791c0.469,0.543,1.362,1.012,2.329,1.012c1.085,0,1.67-0.514,1.67-1.217
					c0-1.713-4.38-0.658-4.38-3.281c0-1.098,0.952-2.035,2.636-2.035c1.202,0,2.051,0.453,2.622,1.025l-0.513,0.762
					c-0.424-0.514-1.201-0.895-2.109-0.895c-0.966,0-1.567,0.484-1.567,1.113c0,1.553,4.379,0.527,4.379,3.281
					c0,1.188-0.952,2.139-2.783,2.139C196.806,486.322,195.824,485.971,195.107,485.209z"/>
				<path d="M201.977,477.328c0-0.41,0.337-0.746,0.732-0.746c0.41,0,0.747,0.336,0.747,0.746c0,0.41-0.337,0.732-0.747,0.732
					C202.314,478.061,201.977,477.738,201.977,477.328z M202.167,486.147v-7.074h1.099v7.074H202.167z"/>
				<path d="M205.082,487.963l0.556-0.82c0.586,0.703,1.289,0.967,2.3,0.967c1.172,0,2.27-0.57,2.27-2.123v-1.012
					c-0.513,0.719-1.377,1.26-2.373,1.26c-1.846,0-3.149-1.377-3.149-3.662c0-2.27,1.289-3.676,3.149-3.676
					c0.952,0,1.802,0.469,2.373,1.244v-1.068h1.099v6.869c0,2.344-1.641,3.076-3.369,3.076
					C206.736,489.018,205.916,488.783,205.082,487.963z M210.208,484.111v-3.092c-0.381-0.615-1.23-1.143-2.109-1.143
					c-1.421,0-2.27,1.129-2.27,2.695c0,1.553,0.849,2.695,2.27,2.695C208.978,485.268,209.827,484.727,210.208,484.111z"/>
				<path d="M217.913,486.147v-4.629c0-1.244-0.63-1.641-1.582-1.641c-0.864,0-1.685,0.527-2.094,1.1v5.17h-1.099v-7.074h1.099
					v1.025c0.498-0.586,1.464-1.201,2.519-1.201c1.479,0,2.256,0.746,2.256,2.285v4.965H217.913z"/>
				<path d="M220.432,482.602c0-2.051,1.465-3.705,3.486-3.705c2.139,0,3.398,1.67,3.398,3.793v0.279h-5.727
					c0.088,1.332,1.025,2.445,2.548,2.445c0.806,0,1.626-0.322,2.183-0.893l0.527,0.717c-0.703,0.703-1.655,1.084-2.813,1.084
					C221.941,486.322,220.432,484.815,220.432,482.602z M223.904,479.805c-1.509,0-2.256,1.273-2.314,2.357h4.643
					C226.218,481.108,225.515,479.805,223.904,479.805z"/>
				<path d="M233.85,486.147v-1.055c-0.527,0.719-1.392,1.23-2.388,1.23c-1.845,0-3.149-1.406-3.149-3.705
					c0-2.256,1.289-3.721,3.149-3.721c0.952,0,1.817,0.469,2.388,1.244v-3.764h1.098v9.769H233.85z M233.85,484.229v-3.209
					c-0.396-0.615-1.245-1.143-2.124-1.143c-1.421,0-2.271,1.172-2.271,2.74c0,1.566,0.85,2.725,2.271,2.725
					C232.605,485.342,233.454,484.844,233.85,484.229z"/>
				<path d="M240.192,486.147v-9.769h1.099v3.764c0.571-0.775,1.421-1.244,2.388-1.244c1.845,0,3.149,1.465,3.149,3.721
					c0,2.299-1.304,3.705-3.149,3.705c-0.996,0-1.86-0.512-2.388-1.23v1.055H240.192z M243.4,485.342
					c1.436,0,2.285-1.158,2.285-2.725c0-1.568-0.85-2.74-2.285-2.74c-0.864,0-1.729,0.527-2.109,1.143v3.209
					C241.671,484.844,242.535,485.342,243.4,485.342z"/>
				<path d="M248.028,487.92c0.161,0.072,0.425,0.117,0.601,0.117c0.483,0,0.806-0.162,1.055-0.748l0.469-1.068l-2.959-7.148h1.186
					l2.358,5.801l2.344-5.801h1.201l-3.545,8.51c-0.425,1.025-1.143,1.422-2.08,1.436c-0.234,0-0.601-0.043-0.806-0.104
					L248.028,487.92z"/>
			</g>
		</g>
	</g>
</g>
</svg>
